<svg width="300" height="63" viewBox="0 0 300 63" fill="none" xmlns="http://www.w3.org/2000/svg">
<path d="M225.71 29.1516C221.624 29.1516 218.407 32.8045 218.407 37.1369C218.407 41.5204 221.624 45.174 225.813 45.174C229.796 45.174 233.371 41.7292 233.371 37.1369C233.371 32.4406 229.541 29.1516 225.71 29.1516Z" fill="#FAD762"/>
<path d="M277.981 29.1516C273.895 29.1516 270.575 32.4917 270.575 37.0847C270.575 41.6246 273.895 45.1735 277.981 45.1735C282.015 45.1735 285.591 41.99 285.591 37.0847C285.601 36.0532 285.412 35.0298 285.035 34.0729C284.658 33.116 284.1 32.2443 283.394 31.5077C282.687 30.771 281.846 30.1838 280.917 29.7795C279.988 29.3753 278.991 29.1619 277.981 29.1516Z" fill="#FAD762"/>
<path d="M296.792 0.000244141L91.7275 5.47639L95.4787 62.5413L300 57.0652L296.792 0.000244141ZM139.402 49.348H134.346V35.6745C134.346 31.7088 132.304 29.2557 129.086 29.2557C125.153 29.2033 123.11 32.074 123.11 37.188V49.348H118.055V35.6745C118.055 31.7088 116.011 29.2557 113.05 29.2557C109.935 29.2557 106.767 31.291 106.767 36.2492V49.348H101.763V24.9762H106.767V28.7857C107.84 26.0715 111.007 24.3491 114.225 24.3491C117.698 24.3491 120.609 26.2281 122.039 29.4639C124.082 25.2369 127.81 24.3491 130.21 24.3491C136.186 24.3491 139.404 28.4722 139.404 35.4133L139.402 49.348ZM168.562 49.348H163.559V45.6427C162.178 48.6175 158.349 49.9746 155.846 49.9746C149.82 49.9746 146.194 45.8515 146.245 38.9104V24.9762H151.25V38.7545C151.25 42.7734 153.599 45.1733 156.662 45.1733C159.778 45.1733 163.557 43.2951 163.557 38.232V24.9762H168.563L168.562 49.348ZM183.372 49.9746C178.929 49.9746 174.384 47.1563 174.282 42.0415H178.929C178.929 43.9728 180.614 45.6427 183.321 45.6427C186.079 45.6427 187.764 44.2325 187.764 42.4069C187.764 40.7893 186.487 39.9547 184.699 39.5369L181.484 38.7545C177.04 37.5538 174.997 35.2056 174.997 31.6044C174.997 27.6387 178.521 24.3502 183.475 24.3502C187.56 24.3502 191.952 26.542 191.952 31.6568H187.153C187.153 29.8821 185.365 28.6821 183.577 28.6821C181.484 28.6821 180.053 30.0923 180.053 31.7615C180.053 33.2751 181.433 34.1097 182.914 34.4751L186.54 35.3621C191.647 36.6668 192.771 39.9027 192.771 42.5122C192.771 47.1568 188.276 49.9751 183.373 49.9751L183.372 49.9746ZM210.645 29.2557H205.537V49.348H200.533V29.2557H196.242V24.9762H200.533V15.8426H205.537V24.9762H210.646L210.645 29.2557ZM238.427 49.348H233.422V45.2252C231.89 48.0435 228.621 49.9746 224.944 49.9746C218.713 49.9746 213.35 44.651 213.35 37.1359C213.35 29.881 218.407 24.3493 225.148 24.3493C228.621 24.3493 231.89 25.8629 233.422 28.6288V24.9762H238.427V49.348ZM260.897 30.0916C259.795 29.5567 258.593 29.2718 257.373 29.2562C253.032 29.2562 250.989 34.0049 250.989 40.5809V49.3486H245.933V24.9762H250.989V30.4562C252.215 26.176 254.615 24.3497 257.68 24.3497C259.314 24.3497 260.999 24.7675 261.766 25.2374L260.897 30.0916ZM290.646 49.3486H285.642V45.6959C284.058 48.4614 280.636 49.9753 277.418 49.9753C270.932 49.9753 265.571 44.8605 265.571 37.1366C265.571 29.3601 270.933 24.3501 277.369 24.3501C280.74 24.3501 284.059 25.8112 285.643 28.5779V11.7203H290.647L290.646 49.3486Z" fill="#FAD762"/>
<path d="M20.0119 24.9935H25.003V49.2935H20.0119V45.1829C18.4843 47.9926 15.2264 49.918 11.5587 49.918C5.3467 49.9178 0 44.6107 0 37.1178C0 29.8843 5.04129 24.3691 11.7631 24.3691C15.2255 24.3691 18.4843 25.8783 20.0117 28.6365L20.0119 24.9935ZM19.9614 37.1179C19.9614 32.4357 16.1421 29.1574 12.3228 29.1574C8.24938 29.1574 5.04111 32.7995 5.04111 37.1185C5.04111 41.489 8.24938 45.132 12.4246 45.132C16.397 45.132 19.9612 41.6972 19.9612 37.1185" fill="#FAD762"/>
<path d="M51.0222 11.7771H56.0121V49.2942H51.0222V45.6514C49.4433 48.4094 46.0315 49.9187 42.8234 49.9187C36.3565 49.9187 31.0098 44.819 31.0098 37.1177C31.0098 29.3649 36.3565 24.3691 42.7728 24.3691C46.1334 24.3691 49.4435 25.8266 51.0222 28.5847V11.7771ZM50.9709 37.0661C50.9812 36.0376 50.793 35.0171 50.4173 34.0629C50.0415 33.1088 49.4854 32.2396 48.7808 31.505C48.0763 30.7705 47.237 30.185 46.3109 29.7819C45.3849 29.3789 44.3902 29.1662 43.3837 29.1561C39.3102 29.1561 35.9993 32.4861 35.9993 37.0654C35.9993 41.5924 39.31 45.1305 43.3837 45.1305C47.4065 45.1305 50.9708 41.9564 50.9708 37.0654" fill="#FAD762"/>
<path d="M81.9812 11.7771H86.9712V49.2942H81.9812V45.6514C80.4023 48.4094 76.9906 49.9187 73.7824 49.9187C67.3154 49.9187 61.9688 44.819 61.9688 37.1177C61.9688 29.3649 67.3155 24.3691 73.7318 24.3691C77.0931 24.3691 80.4025 25.8266 81.9812 28.5847V11.7771ZM81.9306 37.0661C81.9409 36.0376 81.7527 35.0171 81.377 34.0629C81.0012 33.1088 80.4451 32.2396 79.7405 31.505C79.036 30.7705 78.1967 30.185 77.2706 29.7819C76.3446 29.3789 75.3499 29.1662 74.3434 29.1561C70.2692 29.1561 66.959 32.4861 66.959 37.0654C66.959 41.5924 70.269 45.1305 74.3434 45.1305C78.3655 45.1305 81.9305 41.9564 81.9305 37.0654" fill="#FAD762"/>
</svg>
