<svg width="300" height="63" viewBox="0 0 300 63" fill="none" xmlns="http://www.w3.org/2000/svg">
<path d="M225.71 29.1516C221.624 29.1516 218.407 32.8045 218.407 37.1369C218.407 41.5204 221.624 45.174 225.813 45.174C229.796 45.174 233.371 41.7292 233.371 37.1369C233.371 32.4406 229.541 29.1516 225.71 29.1516Z" fill="#13121C"/>
<path d="M277.981 29.1516C273.895 29.1516 270.575 32.4917 270.575 37.0847C270.575 41.6246 273.895 45.1735 277.981 45.1735C282.015 45.1735 285.591 41.99 285.591 37.0847C285.601 36.0532 285.412 35.0298 285.035 34.0729C284.658 33.116 284.1 32.2443 283.394 31.5077C282.687 30.771 281.846 30.1838 280.917 29.7795C279.988 29.3753 278.991 29.1619 277.981 29.1516Z" fill="#13121C"/>
<path d="M296.792 0.00012207L91.7275 5.47627L95.4787 62.5412L300 57.0651L296.792 0.00012207ZM139.402 49.3479H134.346V35.6744C134.346 31.7087 132.304 29.2556 129.086 29.2556C125.153 29.2032 123.11 32.0739 123.11 37.1879V49.3479H118.055V35.6744C118.055 31.7087 116.011 29.2556 113.05 29.2556C109.935 29.2556 106.767 31.2909 106.767 36.2491V49.3479H101.763V24.9761H106.767V28.7856C107.84 26.0713 111.007 24.349 114.225 24.349C117.698 24.349 120.609 26.2279 122.039 29.4638C124.082 25.2367 127.81 24.349 130.21 24.349C136.186 24.349 139.404 28.4721 139.404 35.4132L139.402 49.3479ZM168.562 49.3479H163.559V45.6426C162.178 48.6173 158.349 49.9745 155.846 49.9745C149.82 49.9745 146.194 45.8514 146.245 38.9103V24.9761H151.25V38.7544C151.25 42.7732 153.599 45.1732 156.662 45.1732C159.778 45.1732 163.557 43.295 163.557 38.2319V24.9761H168.563L168.562 49.3479ZM183.372 49.9745C178.929 49.9745 174.384 47.1562 174.282 42.0414H178.929C178.929 43.9727 180.614 45.6426 183.321 45.6426C186.079 45.6426 187.764 44.2324 187.764 42.4068C187.764 40.7892 186.487 39.9546 184.699 39.5368L181.484 38.7544C177.04 37.5537 174.997 35.2055 174.997 31.6043C174.997 27.6386 178.521 24.3501 183.475 24.3501C187.56 24.3501 191.952 26.5419 191.952 31.6567H187.153C187.153 29.8819 185.365 28.682 183.577 28.682C181.484 28.682 180.053 30.0922 180.053 31.7614C180.053 33.275 181.433 34.1096 182.914 34.4749L186.54 35.3619C191.647 36.6667 192.771 39.9026 192.771 42.5121C192.771 47.1567 188.276 49.975 183.373 49.975L183.372 49.9745ZM210.645 29.2556H205.537V49.3479H200.533V29.2556H196.242V24.9761H200.533V15.8425H205.537V24.9761H210.646L210.645 29.2556ZM238.427 49.3479H233.422V45.225C231.89 48.0433 228.621 49.9745 224.944 49.9745C218.713 49.9745 213.35 44.6509 213.35 37.1357C213.35 29.8808 218.407 24.3492 225.148 24.3492C228.621 24.3492 231.89 25.8627 233.422 28.6287V24.9761H238.427V49.3479ZM260.897 30.0915C259.795 29.5566 258.593 29.2716 257.373 29.2561C253.032 29.2561 250.989 34.0048 250.989 40.5808V49.3485H245.933V24.9761H250.989V30.4561C252.215 26.1759 254.615 24.3496 257.68 24.3496C259.314 24.3496 260.999 24.7673 261.766 25.2373L260.897 30.0915ZM290.646 49.3485H285.642V45.6957C284.058 48.4613 280.636 49.9752 277.418 49.9752C270.932 49.9752 265.571 44.8604 265.571 37.1365C265.571 29.36 270.933 24.3499 277.369 24.3499C280.74 24.3499 284.059 25.8111 285.643 28.5777V11.7202H290.647L290.646 49.3485Z" fill="#13121C"/>
<path d="M20.0119 24.9934H25.003V49.2934H20.0119V45.1828C18.4843 47.9925 15.2264 49.9179 11.5587 49.9179C5.3467 49.9177 0 44.6106 0 37.1176C0 29.8842 5.04129 24.369 11.7631 24.369C15.2255 24.369 18.4843 25.8782 20.0117 28.6364L20.0119 24.9934ZM19.9614 37.1178C19.9614 32.4356 16.1421 29.1573 12.3228 29.1573C8.24938 29.1573 5.04111 32.7994 5.04111 37.1184C5.04111 41.4888 8.24938 45.1319 12.4246 45.1319C16.397 45.1319 19.9612 41.6971 19.9612 37.1184" fill="#13121C"/>
<path d="M51.0222 11.777H56.0121V49.2941H51.0222V45.6513C49.4433 48.4093 46.0315 49.9186 42.8234 49.9186C36.3565 49.9186 31.0098 44.8188 31.0098 37.1176C31.0098 29.3648 36.3565 24.369 42.7728 24.369C46.1334 24.369 49.4435 25.8265 51.0222 28.5845V11.777ZM50.9709 37.066C50.9812 36.0375 50.793 35.017 50.4173 34.0628C50.0415 33.1086 49.4854 32.2395 48.7808 31.5049C48.0763 30.7704 47.237 30.1848 46.3109 29.7818C45.3849 29.3788 44.3902 29.1661 43.3837 29.156C39.3102 29.156 35.9993 32.486 35.9993 37.0652C35.9993 41.5923 39.31 45.1304 43.3837 45.1304C47.4065 45.1304 50.9708 41.9562 50.9708 37.0652" fill="#13121C"/>
<path d="M81.9812 11.777H86.9712V49.2941H81.9812V45.6513C80.4023 48.4093 76.9906 49.9186 73.7824 49.9186C67.3154 49.9186 61.9688 44.8188 61.9688 37.1176C61.9688 29.3648 67.3155 24.369 73.7318 24.369C77.0931 24.369 80.4025 25.8265 81.9812 28.5845V11.777ZM81.9306 37.066C81.9409 36.0375 81.7527 35.017 81.377 34.0628C81.0012 33.1086 80.4451 32.2395 79.7405 31.5049C79.036 30.7704 78.1967 30.1848 77.2706 29.7818C76.3446 29.3788 75.3499 29.1661 74.3434 29.156C70.2692 29.156 66.959 32.486 66.959 37.0652C66.959 41.5923 70.269 45.1304 74.3434 45.1304C78.3655 45.1304 81.9305 41.9562 81.9305 37.0652" fill="#13121C"/>
</svg>
