<svg width="28" height="28" viewBox="0 0 28 28" fill="none" xmlns="http://www.w3.org/2000/svg">
<path d="M7.71754 22.5184L8.69494 23.0894C10.3432 24.0507 12.2179 24.5554 14.126 24.5515C16.262 24.5515 18.3501 23.918 20.1261 22.7313C21.9022 21.5446 23.2865 19.8579 24.1039 17.8844C24.9213 15.911 25.1352 13.7395 24.7185 11.6445C24.3017 9.54949 23.2731 7.62511 21.7627 6.11471C20.2523 4.6043 18.328 3.5757 16.233 3.15898C14.138 2.74226 11.9664 2.95614 9.99301 3.77356C8.01957 4.59099 6.33284 5.97525 5.14612 7.7513C3.9594 9.52735 3.32599 11.6154 3.32599 13.7515C3.32599 15.6901 3.83494 17.549 4.78939 19.1839L5.35909 20.1613L4.47754 23.4026L7.71754 22.5184ZM0.631395 27.2514L2.45659 20.5447C1.25393 18.483 0.622074 16.1382 0.625995 13.7515C0.625995 6.29541 6.66994 0.251465 14.126 0.251465C21.582 0.251465 27.626 6.29541 27.626 13.7515C27.626 21.2075 21.582 27.2514 14.126 27.2514C11.7402 27.2553 9.39647 26.6239 7.33549 25.4222L0.631395 27.2514ZM9.25384 7.41726C9.43474 7.40376 9.61699 7.40376 9.79789 7.41186C9.87079 7.41726 9.94369 7.42536 10.0166 7.43346C10.2312 7.45776 10.4675 7.58871 10.5471 7.76961C10.9494 8.68221 11.3409 9.60156 11.7189 10.5236C11.8026 10.7288 11.7527 10.9921 11.5934 11.2486C11.4838 11.422 11.3653 11.5896 11.2383 11.7508C11.0858 11.9465 10.7577 12.3056 10.7577 12.3056C10.7577 12.3056 10.6241 12.4649 10.6754 12.6634C10.6943 12.739 10.7564 12.8483 10.8131 12.9401L10.8927 13.0684C11.2383 13.6448 11.7027 14.2294 12.2697 14.7802C12.4317 14.9368 12.5897 15.0974 12.7598 15.2473C13.3916 15.8048 14.1071 16.2598 14.8793 16.5973L14.886 16.6C15.0008 16.6499 15.0588 16.6769 15.2262 16.7485C15.3099 16.7836 15.3963 16.8146 15.4841 16.8376C15.5748 16.8606 15.6703 16.8563 15.7585 16.8251C15.8467 16.7938 15.9236 16.7371 15.9795 16.6621C16.9569 15.4781 17.046 15.4012 17.0541 15.4012V15.4039C17.122 15.3405 17.2027 15.2925 17.2907 15.2629C17.3787 15.2333 17.4721 15.2229 17.5644 15.2324C17.6454 15.2378 17.7278 15.2527 17.8034 15.2864C18.5202 15.6145 19.6934 16.1261 19.6934 16.1261L20.4791 16.4785C20.6114 16.5419 20.7315 16.6918 20.7356 16.8362C20.741 16.9267 20.7491 17.0725 20.718 17.3398C20.6748 17.6894 20.5695 18.1093 20.4642 18.3293C20.3921 18.4795 20.2964 18.6171 20.1807 18.737C20.0445 18.88 19.8954 19.0102 19.7352 19.1258C19.6798 19.1675 19.6236 19.208 19.5665 19.2473C19.3986 19.3538 19.2261 19.4529 19.0494 19.5443C18.7019 19.7289 18.318 19.8349 17.9249 19.8548C17.6751 19.8683 17.4254 19.8872 17.1743 19.8737C17.1635 19.8737 16.4075 19.7563 16.4075 19.7563C14.4881 19.2514 12.7131 18.3056 11.2235 16.9942C10.9184 16.7255 10.6362 16.4366 10.3473 16.1491C9.14584 14.9543 8.23864 13.6651 7.68784 12.4474C7.40592 11.8497 7.25363 11.1992 7.24099 10.5385C7.23542 9.71881 7.50336 8.92071 8.00239 8.27046C8.10094 8.14356 8.19409 8.01126 8.35474 7.85871C8.52619 7.69671 8.63419 7.61031 8.75164 7.55091C8.9078 7.47265 9.07815 7.42674 9.25249 7.41591L9.25384 7.41726Z" fill="#f0bec9"/>
</svg>
